HIERARCHY
ROOT Hips
{
    OFFSET 0.000000 0.000000 0.000000
    CHANNELS 6 Xposition Yposition Zposition Zrotation Xrotation Yrotation
    JOINT Spine
    {
        OFFSET -0.000000 0.081317 0.000000
        CHANNELS 3 Zrotation Xrotation Yrotation
        JOINT Spine1
        {
            OFFSET -0.000000 0.225200 0.000000
            CHANNELS 3 Zrotation Xrotation Yrotation
            JOINT Neck
            {
                OFFSET -0.000000 0.224275 0.020389
                CHANNELS 3 Zrotation Xrotation Yrotation
                JOINT Head
                {
                    OFFSET -0.000000 0.138833 -0.019833
                    CHANNELS 3 Zrotation Xrotation Yrotation
                    End Site
                    {
                        OFFSET -0.000000 0.198333 0.000000
                    }
                }
            }
            JOINT LeftShoulder
            {
                OFFSET 0.039732 0.208237 -0.000812
                CHANNELS 3 Zrotation Xrotation Yrotation
                JOINT LeftArm
                {
                    OFFSET 0.110955 0.000000 0.000000
                    CHANNELS 3 Zrotation Xrotation Yrotation
                    JOINT LeftForeArm
                    {
                        OFFSET 0.324523 0.000000 0.000000
                        CHANNELS 3 Zrotation Xrotation Yrotation
                        JOINT LeftHand
                        {
                            OFFSET 0.302601 0.000000 0.000000
                            CHANNELS 3 Zrotation Xrotation Yrotation
                            End Site
                            {
                                OFFSET 0.148750 0.000000 0.000000
                            }
                        }
                    }
                }
            }
            JOINT RightShoulder
            {
                OFFSET -0.039598 0.208237 -0.000812
                CHANNELS 3 Zrotation Xrotation Yrotation
                JOINT RightArm
                {
                    OFFSET -0.110955 0.000000 0.000000
                    CHANNELS 3 Zrotation Xrotation Yrotation
                    JOINT RightForeArm
                    {
                        OFFSET -0.324523 0.000000 0.000000
                        CHANNELS 3 Zrotation Xrotation Yrotation
                        JOINT RightHand
                        {
                            OFFSET -0.302601 0.000000 0.000000
                            CHANNELS 3 Zrotation Xrotation Yrotation
                            End Site
                            {
                                OFFSET -0.148750 0.000000 0.000000
                            }
                        }
                    }
                }
            }
        }
    }
    JOINT LeftUpLeg
    {
        OFFSET 0.099167 0.000000 0.000000
        CHANNELS 3 Zrotation Xrotation Yrotation
        JOINT LeftLeg
        {
            OFFSET -0.000000 -0.380753 0.000000
            CHANNELS 3 Zrotation Xrotation Yrotation
            JOINT LeftFoot
            {
                OFFSET -0.000000 -0.440093 0.000000
                CHANNELS 3 Zrotation Xrotation Yrotation
                JOINT LeftToeBase
                {
                    OFFSET -0.000000 -0.064458 0.148750
                    CHANNELS 3 Zrotation Xrotation Yrotation
                    End Site
                    {
                        OFFSET -0.000000 0.000000 0.039667
                    }
                }
            }
        }
    }
    JOINT RightUpLeg
    {
        OFFSET -0.099167 0.000000 0.000000
        CHANNELS 3 Zrotation Xrotation Yrotation
        JOINT RightLeg
        {
            OFFSET -0.000000 -0.380753 0.000000
            CHANNELS 3 Zrotation Xrotation Yrotation
            JOINT RightFoot
            {
                OFFSET -0.000000 -0.440093 0.000000
                CHANNELS 3 Zrotation Xrotation Yrotation
                JOINT RightToeBase
                {
                    OFFSET -0.000000 -0.064458 0.148750
                    CHANNELS 3 Zrotation Xrotation Yrotation
                    End Site
                    {
                        OFFSET -0.000000 0.000000 0.039667
                    }
                }
            }
        }
    }
}
MOTION
Frames:    8
Frame Time:    0.010000
-0.489475    0.930380    -0.268920    -2.949374    0.709004    25.130201    -6.826173    -19.479837    -4.690384    9.391908    39.399151    -4.544340    -1.060709    20.637466    -0.643386    4.819745    -33.408283    1.335033    -14.854323    1.378672    -10.176087    -56.030937    7.211851    -18.211756    5.577310    18.583633    -99.498108    4.766323    24.379025    -8.846527    11.630289    0.176353    4.287677    61.983425    46.181820    -16.894459    -29.496130    -20.736895    59.939068    10.602220    -4.242177    -6.148940    0.335143    7.872255    39.942093    -0.761835    -0.572552    38.890930    18.074305    18.154081    -71.429787    0.000000    0.000000    0.000000    1.076878    -14.066711    8.042425    0.081859    27.381119    1.338363    -3.389522    14.095564    -7.388749    0.000000    0.000000    0.000000    
-0.489438    0.930376    -0.266232    -3.000481    0.706872    25.118191    -6.810334    -19.381466    -4.814080    9.624025    39.370560    -4.669287    -1.078948    20.656590    -0.510119    4.939565    -33.301365    1.519075    -14.722301    1.281981    -10.180941    -56.048954    7.627922    -18.486740    7.081591    17.693138    -101.592453    0.940634    25.716412    -7.862674    11.480047    0.163312    4.285519    61.927540    46.270786    -17.601152    -29.487549    -20.989470    60.785992    10.578830    -4.190336    -5.923154    0.487279    7.991146    40.163982    -0.786307    -0.513910    38.576275    17.976292    18.275934    -71.332848    0.000000    0.000000    0.000000    1.316114    -14.297482    9.092174    0.520773    27.409861    0.909645    -3.352902    14.220454    -7.635931    0.000000    0.000000    0.000000    
-0.489356    0.930160    -0.264160    -3.061213    0.929663    25.247227    -6.882699    -19.367268    -5.066924    9.874157    39.235115    -4.826600    -1.151501    20.625763    -0.389896    5.071546    -33.103188    1.688613    -14.621033    1.189270    -10.164976    -55.898422    7.975529    -18.475229    5.431024    18.191723    -102.698830    5.842821    24.084349    -9.436634    11.296956    0.162379    4.260625    61.802158    46.366795    -18.177828    -29.510460    -21.221188    61.613811    10.674820    -4.111806    -5.753442    0.527368    7.775752    40.165894    -0.680317    -0.376947    38.462994    17.858105    18.327139    -71.375771    0.000000    0.000000    0.000000    1.450053    -14.672235    9.403094    0.532226    27.340633    0.949000    -3.320723    14.229497    -7.634104    0.000000    0.000000    0.000000    
-0.489160    0.930149    -0.261958    -3.077063    1.036811    25.358101    -6.900342    -19.256609    -5.263030    10.095211    39.121025    -4.961209    -1.141064    20.598513    -0.280739    5.083535    -32.895927    1.798851    -14.439212    1.180737    -10.257927    -55.887333    8.165086    -18.566286    5.781550    17.831202    -104.266495    5.163598    24.380716    -9.444838    11.099911    0.278197    4.184888    61.517853    46.447987    -18.480415    -29.503223    -21.471619    62.428173    10.800508    -4.074563    -5.564563    0.618213    7.654616    40.120258    -0.440908    -0.303485    41.241287    18.841520    17.736511    -74.928932    0.000000    0.000000    0.000000    1.596228    -14.893972    9.659680    0.484449    27.233927    1.049001    -3.289323    14.337309    -7.617474    0.000000    0.000000    0.000000    
-0.489025    0.930106    -0.259590    -3.081461    1.135165    25.462387    -6.921332    -19.119183    -5.462991    10.307011    38.971630    -5.090166    -1.305599    20.555485    -0.133466    5.416565    -32.659477    2.074819    -14.310798    1.089564    -10.251245    -55.795506    8.714324    -18.624983    5.854076    17.377916    -105.472755    5.598565    24.135668    -9.805593    10.953773    0.242427    4.211474    61.452488    46.592373    -19.050797    -29.776377    -21.716043    63.055355    11.404656    -3.930766    -5.364948    0.660936    7.601686    40.114674    -0.352395    -0.180439    40.828373    18.702919    18.198009    -74.558128    0.000000    0.000000    0.000000    1.720728    -15.054230    9.944833    0.669395    27.026491    0.605135    -3.548592    14.495067    -7.565569    0.000000    0.000000    0.000000    
-0.488907    0.929953    -0.257196    -3.118520    1.271794    25.580418    -6.901056    -19.035151    -5.654397    10.460155    38.731518    -5.186725    -1.225516    20.817802    0.003974    5.321124    -32.583439    2.173861    -14.143805    1.218354    -10.343005    -55.765720    8.723243    -18.896215    4.177891    18.320414    -105.843376    10.014223    22.580620    -11.227430    10.837388    0.366162    4.340000    61.302235    46.615646    -19.484228    -29.737856    -22.060015    63.782471    11.647631    -4.042017    -5.144505    0.696043    7.485387    40.131779    -0.195851    -0.092170    40.433975    18.550619    18.189783    -74.453094    0.000000    0.000000    0.000000    1.853909    -15.310983    10.201986    0.668649    26.990747    0.596347    -3.559165    14.491324    -7.508457    0.000000    0.000000    0.000000    
-0.488664    0.929778    -0.254766    -3.071934    1.344147    25.711014    -6.870542    -18.835934    -5.835214    10.561052    38.536160    -5.268109    -1.103507    21.059336    0.076758    5.300790    -32.700790    2.252123    -13.958220    1.187771    -10.349021    -55.767872    8.799950    -18.908802    3.869797    18.458416    -106.631554    10.078943    22.388857    -11.355863    10.756223    0.363671    4.415548    61.212124    46.787498    -19.897593    -29.741980    -22.467403    64.420708    11.828327    -4.221262    -4.920787    0.682367    7.465565    40.013218    -0.083257    0.044837    40.107693    18.358622    18.335913    -74.068413    0.000000    0.000000    0.000000    1.986041    -15.606826    10.414139    0.391552    27.356909    1.018942    -3.249298    14.212990    -7.440271    0.000000    0.000000    0.000000    
-0.488444    0.929513    -0.252255    -3.020409    1.436746    25.830048    -6.873503    -18.714724    -5.965950    10.790966    38.540707    -5.395492    -1.085769    20.947453    0.169996    5.304241    -32.543343    2.343310    -13.780994    1.055302    -10.318849    -55.769562    8.935076    -18.862974    4.503030    18.059849    -107.684395    8.768731    23.011232    -11.456998    10.605007    0.306753    4.339466    60.933422    46.998657    -19.928164    -29.431297    -22.874493    65.135063    11.327436    -4.556927    -4.644031    0.657679    7.408116    40.000900    0.072443    0.211246    39.640430    18.139071    18.515104    -73.675194    0.000000    0.000000    0.000000    2.165490    -15.630277    9.905113    -0.294498    27.185469    1.580094    -3.673844    13.990406    -6.909062    0.000000    0.000000    0.000000    
